<svg width="151" height="23" fill="none" xmlns="http://www.w3.org/2000/svg"><path d="m21.186 21.884-.103.13h6.203l-.052-.052a5.726 5.726 0 0 1-.387-.646l-.026-.078c-.31-.62-.62-1.68-.62-3.23v-3.464c0-4.29-1.939-7.78-6.436-7.78-2.378 0-4.187 1.396-5.066 2.792-.853-1.706-2.352-2.792-4.575-2.792-.853 0-1.938.155-2.584.44A8.298 8.298 0 0 1 .923 7.1c.052.104.284.414.517 1.008.284.672.543 1.68.543 2.998l.026 6.901c0 2.3-.724 3.515-1.008 3.877l-.078.13h6.203l-.052-.052c-.077-.104-.232-.31-.413-.646l-.026-.078c-.284-.62-.594-1.68-.594-3.23l-.026-4.343c0-3.825 1.034-5.763 3.773-5.763 1.603 0 2.3 1.938 2.3 5.737V18.007c0 2.3-.723 3.515-.981 3.877l-.104.13h6.203l-.052-.052a5.726 5.726 0 0 1-.387-.646l-.026-.078c-.31-.62-.62-1.68-.62-3.23v-4.705c.077-3.618 1.085-5.401 3.747-5.401 1.603 0 2.3 1.938 2.3 5.79v4.315c0 2.3-.723 3.515-.982 3.877ZM37.187 6.764c-5.686 0-8.296 3.49-8.296 7.78 0 4.316 2.61 7.805 8.296 7.805 5.712 0 8.323-3.489 8.323-7.805 0-4.29-2.61-7.78-8.323-7.78ZM39.462 20.8c-3.283 1.189-5.325-2.12-6.307-4.782-.956-2.636-1.525-6.513 1.784-7.728 3.282-1.189 5.35 2.145 6.306 4.782.956 2.662 1.525 6.513-1.783 7.728ZM58.97 21.884l-.077.13h5.842l-.052-.052c-.078-.104-.233-.31-.414-.646l-.026-.078c-.284-.62-.594-1.68-.594-3.23v-3.464c0-4.29-1.86-7.78-7.082-7.78-.879 0-1.964.155-2.61.44A8.298 8.298 0 0 1 47.34 7.1c.052.104.284.414.517 1.008.284.672.543 1.68.543 2.998l.026 6.901c0 2.3-.724 3.515-1.008 3.877l-.078.13h6.203l-.051-.052c-.078-.104-.233-.31-.414-.646l-.026-.078c-.284-.62-.594-1.68-.594-3.23l-.026-4.343c0-3.825.956-5.763 4.135-5.763 2.456 0 3.412 1.938 3.412 5.79v4.315c0 2.3-.724 3.515-1.008 3.877ZM80.423 7.1a5.535 5.535 0 0 1-.362 3.231L75.41 20.618 70.73 10.33a5.536 5.536 0 0 1-.362-3.23h-6.565c1.189 1.11 2.171 2.429 2.843 3.928l4.937 10.985h4.42l4.962-10.985c.672-1.5 1.654-2.817 2.869-3.929h-3.412ZM99.87 11.106c0-2.662 1.085-4.006 1.085-4.006a8.253 8.253 0 0 1-6.642.078c-.647-.259-1.758-.414-2.61-.414-5.248 0-8.142 3.49-8.142 7.78 0 4.316 2.894 7.78 8.141 7.78 2.171 0 3.205-.983 4.136-2.275 0 1.086 1.24 1.965 2.326 1.965h2.791s-1.085-1.293-1.085-3.619v-7.289Zm-8.168 10.08c-2.481 0-4.135-2.79-4.135-6.642 0-3.825 1.654-6.642 4.135-6.642 3.154 0 4.136 2.817 4.136 6.642 0 2.507-.982 6.642-4.136 6.642ZM102.743 21.884l-.078.13h6.177l-.051-.052a3.335 3.335 0 0 1-.388-.646l-.026-.078c-.31-.62-.62-1.68-.62-3.23V4.825c0-1.81-1.473-3.257-3.283-3.257h-1.809s1.086 1.163 1.086 4.006v12.432c0 2.3-.724 3.515-1.008 3.877ZM110.62 21.884l-.078.13h6.177l-.051-.052a3.335 3.335 0 0 1-.388-.646l-.026-.078c-.31-.62-.62-1.68-.62-3.23v-7.651c0-1.81-1.473-3.257-3.283-3.257h-1.809s1.086 1.163 1.086 4.006v6.901c0 2.3-.724 3.515-1.008 3.877ZM125.603 12.941c-1.396-.206-3.127-.62-3.127-1.68 0-2.48 1.705-3.36 2.868-3.36 1.008 0 2.818.88 2.818 3.826h2.352c.904 0 1.602-.93 1.24-1.784-1.034-2.3-4.368-3.179-6.461-3.179-2.792.104-6.824 1.344-6.824 4.497 0 2.999 2.947 4.136 6.617 4.679 1.938.284 3.463.672 3.463 1.783 0 2.61-1.886 3.463-3.179 3.463-1.395 0-3.075-.852-3.075-3.463h-2.223c-1.034 0-1.706 1.137-1.189 1.99 1.137 1.784 4.109 2.61 6.461 2.61 3.567 0 7.237-1.317 7.237-4.6 0-3.36-3.308-4.213-6.978-4.781ZM144.036 20.928c-3.179 0-4.885-2.817-5.479-5.609h9.95c1.551 0 2.663-1.395 2.275-2.894-.905-3.515-4.084-5.66-8.142-5.66-5.091 0-8.296 3.437-8.296 7.727 0 4.317 3.205 7.832 8.296 7.832 3.826 0 6.927-2.3 7.987-5.092 0 0-2.688 3.696-6.591 3.696ZM141.27 8.057c3.05-.827 5.144 2.067 5.583 5.014.104.543-.31 1.111-.853 1.111h-7.65c-.181-2.507.258-5.376 2.92-6.125Z" fill="#2D3132"/><path d="M115.789 3.094a2.168 2.168 0 0 1-2.171 2.171 2.184 2.184 0 0 1-2.171-2.17c0-1.216.982-2.172 2.171-2.172 1.214 0 2.171.956 2.171 2.171Z" fill="#BAC6EA"/></svg>