<svg aria-hidden="true" style="position:absolute;width:0;height:0;overflow:hidden" xmlns="http://www.w3.org/2000/svg">
    <defs>
        <symbol id="location" viewBox="0 0 32 32">
            <path d="M8.08 4.739c4.373-4.187 11.467-4.187 15.84 0 3.912 3.744 4.381 9.659 1.104 13.923L16 30.401 6.976 18.662C3.699 14.398 4.168 8.481 8.08 4.739zM16 17.6A4.8 4.8 0 1 0 16 8a4.8 4.8 0 1 0 0 9.6z"/>
        </symbol>
        <symbol id="search" viewBox="0 0 32 32">
            <path fill="#5c5f60" style="fill:var(--color1, #5c5f60)"
                  d="m22.157 24.043 4.901 4.899 1.885-1.885-4.901-4.899-.018.023a11.953 11.953 0 0 0 2.643-7.514c0-6.627-5.373-12-12-12s-12 5.373-12 12 5.373 12 12 12c2.844 0 5.457-.989 7.49-2.625zM24 14.666a9.334 9.334 0 0 1-18.668 0 9.334 9.334 0 0 1 18.668 0z"/>
        </symbol>
        <symbol id="cart" viewBox="0 0 32 32">
            <path d="M6.397 5.333H2.666V2.666h5.92l.845 4.26a1.335 1.335 0 0 0 1.307 1.073h13.413c2.793 0 4.725 2.789 3.745 5.404l-2 5.333c-.585 1.529-2.041 2.596-3.745 2.596h-7.107a6.668 6.668 0 0 1-6.531-5.326l-.007-.043L6.397 5.332zm3.768 5.294.957 4.819a4.006 4.006 0 0 0 3.923 3.221h7.107c.568 0 1.053-.356 1.245-.856l.003-.009 2-5.333a1.333 1.333 0 0 0-1.248-1.801H10.739c-.193 0-.385-.013-.573-.04zM13.333 26a2 2 0 1 1-4 0 2 2 0 1 1 4 0zm10 2a2 2 0 1 0 0-4 2 2 0 1 0 0 4z"/>
        </symbol>
        <symbol id="message" viewBox="0 0 32 32">
            <path d="M22.667 12c0 .736-.597 1.333-1.333 1.333H10.667a1.333 1.333 0 0 1 0-2.666h10.667c.736 0 1.333.597 1.333 1.333zM9.333 17.333c0 .736.597 1.333 1.333 1.333h10.667a1.333 1.333 0 0 0 0-2.666H10.666c-.736 0-1.333.597-1.333 1.333z"/>
            <path d="M8 4h16a5.333 5.333 0 0 1 5.333 5.333V20A5.333 5.333 0 0 1 24 25.333h-8.203a5.25 5.25 0 0 0-2.164.46L7.54 28.5c-2.292 1.02-4.873-.659-4.873-3.167v-16A5.333 5.333 0 0 1 8 4zm16 2.667H8a2.667 2.667 0 0 0-2.667 2.667v16a.799.799 0 0 0 1.129.728l-.005.002 6.092-2.707a7.887 7.887 0 0 1 3.249-.691h8.201a2.667 2.667 0 0 0 2.667-2.667V9.332a2.667 2.667 0 0 0-2.667-2.667z"/>
        </symbol>
        <symbol id="favorites" viewBox="0 0 32 32">
            <path d="M16.324 6.343a8 8 0 0 1 11.313 11.314L16.324 28.97 5.009 17.657A8 8 0 0 1 16.324 6.342zm9.427 1.886c-.965-.965-2.298-1.562-3.771-1.562s-2.806.597-3.771 1.562l-1.885 1.885-1.887-1.885a5.333 5.333 0 1 0-7.542 7.542l.001.001 9.427 9.427 9.429-9.427c.965-.965 1.562-2.299 1.562-3.771s-.597-2.806-1.562-3.771z"/>
        </symbol>
        <symbol id="arrow-down" viewBox="0 0 32 32">
            <path fill="#747778" style="fill:var(--color2, #747778)"
                  d="M2.069 9.397 4.33 7.136l11.669 11.669L27.668 7.136l2.261 2.261-13.931 13.936L2.067 9.397z"/>
        </symbol>
    </defs>
</svg>
